{"scene":0,"asset":{"generator":"ImageToStl.com","version":"2.0"},"scenes":[{"name":"Scene","nodes":[0]}],"nodes":[{"name":"Node0","children":[1]},{"name":"Node1","mesh":0}],"materials":[{"name":"x1","pbrMetallicRoughness":{"baseColorFactor":[0.85,0.85,0.85,1.0],"metallicFactor":0.05,"roughnessFactor":0.5},"doubleSided":true}],"meshes":[{"name":"Mesh0","primitives":[{"indices":3,"material":0,"attributes":{"POSITION":0,"NORMAL":1,"TEXCOORD_0":2}}]}],"accessors":[{"bufferView":0,"componentType":5126,"count":38652,"type":"VEC3","min":[-17.761246,91.58825,-13.908867],"max":[17.757269,161.19696,14.859537]},{"bufferView":1,"componentType":5126,"count":38652,"type":"VEC3"},{"bufferView":2,"componentType":5126,"count":38652,"type":"VEC2"},{"bufferView":3,"componentType":5123,"count":676548,"type":"SCALAR"}],"bufferViews":[{"target":34962,"buffer":0,"byteLength":463824,"byteOffset":0},{"target":34962,"buffer":0,"byteLength":463824,"byteOffset":463824},{"target":34962,"buffer":0,"byteLength":309216,"byteOffset":927648},{"target":34963,"buffer":0,"byteLength":1353096,"byteOffset":1236864}],"buffers":[{"byteLength":2589960,"uri":"data:application/octet-stream;base64,"}]}